<svg class="{{ include.css-class }}" width="162" height="162" viewBox="0 0 162 162" xmlns="http://www.w3.org/2000/svg"><title>Munich Agency</title><g fill="none" fill-rule="evenodd"><path fill="#1D1D1B" d="M0 162h162V0H0z"/><g fill="#FEFEFE"><path d="M80.874 44.517c-2.012-.05-3.625-1.704-3.602-3.695.022-1.99 1.671-3.562 3.683-3.512 2.012.05 3.625 1.705 3.602 3.695-.022 1.99-1.671 3.563-3.683 3.512M61.649 70.75c-.54 2.468-.134 4.815 1.215 7.041 1.35 2.227 3.244 3.667 5.678 4.325 2.437.657 4.718.331 6.84-.977l14.914-7.83c.375-.231.433-.56.174-.985l-1.846-3.044c-.238-.393-.544-.474-.919-.243l-14.914 7.83c-.998.616-2.064.767-3.199.454-1.134-.313-2.017-.993-2.653-2.04-.635-1.048-.829-2.143-.578-3.287.251-1.143.876-2.024 1.875-2.639l14.922-7.836c.374-.23.442-.542.204-.936l-1.846-3.043c-.258-.426-.575-.524-.95-.293l-14.921 7.837c-2.123 1.307-3.455 3.197-3.996 5.666M60.917 78.919a3.474 3.474 0 0 0-4.827-1.042 3.535 3.535 0 0 0-1.033 4.865 3.473 3.473 0 0 0 4.827 1.042 3.535 3.535 0 0 0 1.033-4.865"/><path d="M73.902 49.531c1.86-1.795 4.142-2.694 6.843-2.695 2.702-.002 5.018.896 6.951 2.689 1.934 1.795 2.92 3.979 2.958 6.548l.007 16.518c.007.453-.248.68-.764.68l-3.695.002c-.477 0-.719-.226-.725-.68l-.007-16.518c-.018-1.209-.48-2.228-1.386-3.06-.906-.832-1.994-1.247-3.266-1.247-1.271.001-2.337.417-3.2 1.25-.86.832-1.283 1.853-1.265 3.062l.007 16.528c.007.454-.228.68-.705.68l-3.695.003c-.515 0-.777-.226-.784-.68l-.007-16.528c-.038-2.57.874-4.754 2.733-6.552"/><path d="M100.17 70.657c.536 2.462.128 4.805-1.223 7.027-1.353 2.223-3.246 3.664-5.68 4.323-2.436.659-4.713.337-6.833-.965l-14.881-7.778c-.375-.23-.433-.557-.174-.982l1.85-3.04c.238-.392.544-.473.918-.243l14.882 7.777c.997.613 2.062.762 3.196.449 1.134-.314 2.017-.994 2.653-2.04.637-1.046.83-2.14.582-3.28-.249-1.14-.872-2.018-1.869-2.63l-14.89-7.784c-.373-.23-.441-.54-.203-.932l1.85-3.04c.257-.425.574-.523.948-.293l14.89 7.784c2.12 1.301 3.448 3.185 3.985 5.647M100.89 78.806a3.479 3.479 0 0 1 4.824-1.046c1.616 1.051 2.074 3.224 1.026 4.852a3.478 3.478 0 0 1-4.824 1.046c-1.615-1.05-2.074-3.223-1.025-4.852M136.175 103.897c-1.628-1.59-3.635-2.396-5.967-2.396h-2.222v-5.966c0-.696-.434-1.147-1.106-1.147h-2.751c-.699 0-1.15.451-1.15 1.147v27.342c0 .67.451 1.104 1.15 1.104h2.75c.673 0 1.107-.433 1.107-1.104v-16.436h2.222c.978 0 1.778.316 2.444.966.657.643.977 1.414.977 2.356v13.114c0 .67.434 1.104 1.106 1.104h2.75c.7 0 1.15-.433 1.15-1.104v-13.114c0-2.293-.827-4.267-2.46-5.866M75.524 103.49c-1.628 1.466-2.453 3.274-2.453 5.375v14.024c0 .663.48 1.091 1.222 1.091h2.924c.713 0 1.174-.428 1.174-1.09v-14.025c0-.756.285-1.377.87-1.898.594-.53 1.298-.787 2.152-.787.85 0 1.544.256 2.123.783.572.522.85 1.143.85 1.902v13.91c0 .663.462 1.09 1.175 1.09h2.923c.743 0 1.223-.427 1.223-1.09v-13.91c0-2.1-.817-3.907-2.427-5.373-1.604-1.46-3.578-2.2-5.867-2.2s-4.27.74-5.89 2.198M110.77 101.293c-2.288 0-4.27.755-5.89 2.243-1.627 1.499-2.452 3.346-2.452 5.492v7.218c0 2.147.825 3.993 2.453 5.49 1.618 1.489 3.6 2.245 5.889 2.245 2.29 0 4.266-.764 5.87-2.271 1.608-1.512 2.425-3.35 2.425-5.464v-1.248c0-.704-.481-1.159-1.223-1.159h-2.923c-.714 0-1.175.455-1.175 1.16v1.247c0 .747-.28 1.377-.856 1.925-.578.55-1.272.817-2.118.817-.854 0-1.557-.263-2.152-.804-.585-.532-.869-1.165-.869-1.938v-7.218c0-.773.284-1.406.869-1.939.595-.54 1.298-.804 2.152-.804.85 0 1.545.262 2.124.8.571.533.85 1.168.85 1.943v1.274c0 .677.46 1.115 1.175 1.115h2.923c.742 0 1.223-.438 1.223-1.115v-1.274c0-2.145-.817-3.991-2.427-5.489-1.604-1.49-3.58-2.246-5.868-2.246M97.424 101.293H94.71c-.662 0-1.09.437-1.09 1.114v20.46c0 .677.428 1.114 1.09 1.114h2.713c.662 0 1.09-.437 1.09-1.114v-20.46c0-.677-.428-1.114-1.09-1.114M68.913 101.293h-2.924c-.713 0-1.174.437-1.174 1.114v13.848c0 .747-.28 1.375-.856 1.922-.579.55-1.271.818-2.118.818-.853 0-1.558-.264-2.152-.804-.585-.531-.87-1.165-.87-1.936v-13.848c0-.677-.46-1.114-1.175-1.114h-2.922c-.743 0-1.223.437-1.223 1.114v13.848c0 2.144.826 3.989 2.452 5.483 1.619 1.488 3.6 2.243 5.89 2.243 2.291 0 4.266-.763 5.87-2.269 1.609-1.51 2.424-3.345 2.424-5.457v-13.848c0-.677-.48-1.114-1.222-1.114M41.751 101.293c-2.07 0-3.873.686-5.365 2.04-1.48-1.354-3.276-2.04-5.345-2.04-2.16 0-4.032.75-5.561 2.225-1.537 1.485-2.317 3.317-2.317 5.444v13.9c0 .675.455 1.11 1.16 1.11h2.758c.677 0 1.115-.435 1.115-1.11v-13.9c0-.763.267-1.39.818-1.916.56-.535 1.223-.794 2.027-.794.8 0 1.455.258 2 .79.538.527.8 1.155.8 1.92v13.908c0 .674.438 1.11 1.115 1.11h2.759c.078 0 .152-.004.223-.014.598-.058.969-.48.969-1.104v-13.9c0-.763.267-1.39.818-1.916.56-.535 1.223-.794 2.026-.794.801 0 1.455.258 2 .79.54.527.8 1.155.8 1.92v13.908c0 .674.439 1.11 1.116 1.11h2.758c.704 0 1.16-.436 1.16-1.11v-13.908c0-2.125-.772-3.956-2.292-5.442-1.516-1.478-3.38-2.227-5.542-2.227"/></g></g></svg>
