<svg class="{{ include.css-class }}" width="162" height="162" viewBox="0 0 162 162" xmlns="http://www.w3.org/2000/svg"><title>Munich Agency</title><g fill="none" fill-rule="evenodd"><path fill="#000" d="M0 0h162v162H0z"/><g fill="#FEFEFE"><path d="M137.485 105.64c-1.663-1.612-3.714-2.43-6.097-2.43h-2.271v-6.047c0-.706-.444-1.163-1.13-1.163h-2.812c-.713 0-1.175.457-1.175 1.163v27.718c0 .68.462 1.119 1.175 1.119h2.812c.686 0 1.13-.439 1.13-1.119V108.22h2.271c1 0 1.816.32 2.497.979.672.652.998 1.434.998 2.389v13.294c0 .68.444 1.119 1.13 1.119h2.812c.714 0 1.175-.439 1.175-1.119v-13.294c0-2.325-.846-4.326-2.515-5.947M81.524 104c-2.338 0-4.363.75-6.018 2.227-1.663 1.486-2.506 3.32-2.506 5.449v13.218c0 .672.49 1.106 1.249 1.106h2.987c.73 0 1.201-.434 1.201-1.106v-13.218c0-.767.29-1.396.888-1.924.608-.537 1.327-.798 2.2-.798.868 0 1.578.26 2.17.793.584.53.868 1.16.868 1.929v13.101c0 .672.471 1.106 1.2 1.106h2.988c.758 0 1.249-.434 1.249-1.106v-13.101c0-2.128-.834-3.96-2.48-5.447-1.64-1.48-3.657-2.229-5.996-2.229M111.524 104c-2.338 0-4.363.765-6.018 2.274-1.663 1.52-2.506 3.392-2.506 5.567v7.318c0 2.176.843 4.048 2.506 5.565 1.654 1.51 3.679 2.276 6.018 2.276 2.341 0 4.36-.775 5.999-2.302 1.644-1.533 2.477-3.397 2.477-5.54v-1.264c0-.713-.49-1.175-1.25-1.175h-2.986c-.73 0-1.201.462-1.201 1.175v1.265c0 .757-.286 1.395-.874 1.95-.592.559-1.3.83-2.165.83-.872 0-1.591-.267-2.199-.815-.597-.54-.888-1.182-.888-1.965v-7.318c0-.783.29-1.425.888-1.965.608-.548 1.327-.815 2.2-.815.868 0 1.578.265 2.17.81.584.54.868 1.185.868 1.97v1.292c0 .686.471 1.13 1.2 1.13h2.988c.758 0 1.249-.444 1.249-1.13v-1.292c0-2.173-.834-4.045-2.48-5.564-1.64-1.511-3.657-2.277-5.996-2.277M97.886 104h-2.772c-.677 0-1.114.443-1.114 1.129v20.742c0 .686.437 1.129 1.114 1.129h2.772c.677 0 1.114-.443 1.114-1.129v-20.742c0-.686-.437-1.129-1.114-1.129M68.751 104h-2.987c-.73 0-1.2.443-1.2 1.129v14.04c0 .756-.287 1.393-.875 1.948-.592.557-1.3.828-2.165.828-.872 0-1.591-.266-2.2-.814-.597-.54-.887-1.181-.887-1.963V105.13c0-.686-.471-1.129-1.201-1.129h-2.987c-.759 0-1.249.443-1.249 1.129v14.04c0 2.172.843 4.043 2.506 5.557 1.654 1.509 3.68 2.274 6.018 2.274 2.342 0 4.36-.773 5.999-2.3 1.644-1.53 2.477-3.392 2.477-5.532V105.13c0-.686-.49-1.129-1.249-1.129M40.995 104c-2.115 0-3.958.696-5.483 2.069C34 104.696 32.165 104 30.05 104c-2.208 0-4.12.759-5.683 2.255-1.57 1.506-2.367 3.363-2.367 5.52v14.09c0 .685.465 1.127 1.185 1.127h2.819c.692 0 1.139-.442 1.139-1.126v-14.091c0-.774.273-1.41.836-1.943.572-.542 1.25-.806 2.071-.806.818 0 1.487.263 2.044.802.55.534.818 1.17.818 1.947v14.099c0 .684.447 1.126 1.14 1.126h2.819c.079 0 .155-.005.227-.015.611-.059.99-.486.99-1.12v-14.09c0-.774.273-1.41.836-1.943.572-.542 1.25-.806 2.071-.806.818 0 1.487.263 2.044.802.55.534.818 1.17.818 1.947v14.099c0 .684.447 1.126 1.14 1.126h2.818c.72 0 1.185-.442 1.185-1.126v-14.1c0-2.154-.788-4.01-2.342-5.516-1.549-1.499-3.454-2.258-5.663-2.258"/></g><path d="M92.68 75.224c-.478.837-1.136 1.374-2.012 1.64-.86.262-1.655.17-2.43-.283l-7.032-4.107a1.395 1.395 0 0 0-.802-.193c-.2.014-.405.073-.61.193l-7.032 4.107c-.775.452-1.57.545-2.43.283-.876-.266-1.533-.803-2.011-1.64-.476-.834-.603-1.668-.387-2.55.214-.874.695-1.519 1.472-1.972l6.915-4.038c.087-.051.165-.108.236-.168.505-.173.812-.614.812-1.224v-8.214c0-.905.319-1.647.973-2.27.666-.634 1.454-.942 2.41-.942.952 0 1.73.306 2.377.937.64.624.952 1.368.952 2.275v8.076l.002.034c-.196.593.017 1.158.597 1.496l6.914 4.038c.777.453 1.258 1.098 1.472 1.972.216.882.09 1.716-.387 2.55m6.038-4.146c-.6-2.456-1.995-4.338-4.145-5.593l-4.535-2.649v-5.778c0-2.51-.914-4.673-2.716-6.428-1.797-1.745-4.007-2.63-6.57-2.63-2.561 0-4.78.884-6.592 2.628-1.822 1.754-2.746 3.917-2.746 6.43v5.515l-4.985 2.912c-2.15 1.255-3.544 3.137-4.145 5.593-.596 2.446-.249 4.824 1.032 7.07 1.281 2.243 3.147 3.744 5.546 4.46 2.413.72 4.727.447 6.878-.81l4.761-2.78 4.76 2.78c2.152 1.257 4.466 1.53 6.879.81 2.399-.716 4.265-2.217 5.546-4.46 1.28-2.246 1.628-4.624 1.032-7.07M81.45 45.999A4.423 4.423 0 0 0 86 41.614a4.578 4.578 0 0 0-4.45-4.613A4.425 4.425 0 0 0 77 41.386 4.578 4.578 0 0 0 81.45 46M55.304 77.554c-2.17 1.193-2.944 3.927-1.73 6.107 1.212 2.179 3.954 2.979 6.122 1.785 2.17-1.193 2.944-3.927 1.73-6.107-1.212-2.18-3.954-2.979-6.122-1.785M105.696 77.554c-2.169-1.194-4.91-.394-6.122 1.785-1.214 2.18-.44 4.914 1.73 6.107 2.168 1.194 4.91.394 6.123-1.785 1.213-2.18.438-4.914-1.73-6.107" fill="#FEFEFE"/></g></svg>
