<svg class="{{ include.css-class }}" width="100" height="100" viewBox="0 0 100 100" xmlns="http://www.w3.org/2000/svg"><title>{{ site.title }}</title><g fill="none" fill-rule="evenodd"><path fill="#000" d="M0 100.25h100V.25H0z"/><path d="M50.103 70.479l-6.53 3.428c-2.472 1.525-5.128 1.904-7.967 1.139-2.835-.766-5.04-2.445-6.614-5.038-1.571-2.593-2.042-5.327-1.415-8.202.63-2.875 2.182-5.076 4.655-6.6l6.437-3.38-.003-7.103c-.045-2.993 1.018-5.538 3.184-7.631 2.167-2.091 4.823-3.138 7.97-3.14 3.147-.002 5.845 1.043 8.097 3.132 2.253 2.09 3.4 4.634 3.445 7.627l.003 7.043 6.44 3.366c2.469 1.516 4.016 3.71 4.642 6.578.623 2.868.148 5.597-1.426 8.185-1.576 2.59-3.781 4.267-6.616 5.036-2.837.767-5.49.392-7.958-1.124l-6.344-3.316zm6.25-3.282l3.116 1.629c1.16.713 2.402.888 3.722.522 1.321-.366 2.35-1.157 3.091-2.376.742-1.218.968-2.491.678-3.82-.29-1.328-1.016-2.35-2.177-3.064l-3.415-1.785.002 5.648a.99.99 0 0 1-.044.327c-.028.2-.156.37-.382.508l-4.591 2.411zm-6.737-21.12c.246-.21.528-.218.846-.022l4.863 2.542-.002-3.883c-.02-1.408-.559-2.596-1.614-3.566-1.055-.968-2.323-1.45-3.804-1.45-1.48 0-2.722.484-3.727 1.454-1.002.97-1.495 2.16-1.474 3.567l.002 3.937 4.907-2.577.003-.002zm.456 6.321l-5.363 2.817.002 5.898 5.381 2.812 5.239-2.75-.003-6.03-5.256-2.747zm-11.2 12.136c-.128-.13-.194-.318-.198-.56l-.002-5.59-3.423 1.798c-1.163.716-1.89 1.742-2.183 3.073-.292 1.333-.067 2.609.673 3.828.74 1.221 1.77 2.013 3.09 2.378 1.322.364 2.564.188 3.727-.529l3.287-1.726-4.73-2.472a.979.979 0 0 1-.24-.2zM49.97 31.251c-2.344-.058-4.222-1.985-4.196-4.303.026-2.318 1.947-4.15 4.29-4.091 2.345.058 4.223 1.985 4.197 4.304-.026 2.318-1.947 4.149-4.291 4.09zm-23.246 40.07c1.22 1.9.682 4.437-1.203 5.667a4.045 4.045 0 0 1-5.621-1.213c-1.22-1.9-.682-4.437 1.203-5.667a4.046 4.046 0 0 1 5.621 1.213zm46.561-.131c1.222-1.897 3.737-2.443 5.619-1.219 1.882 1.225 2.416 3.755 1.194 5.652a4.051 4.051 0 0 1-5.619 1.219c-1.88-1.224-2.416-3.755-1.194-5.652z" fill="#FEFEFE"/></g></svg>
