<svg class="{{ include.css-class }}" width="101" height="101" viewBox="0 0 101 101" xmlns="http://www.w3.org/2000/svg"><title>Identidad corporativa</title><g fill="#FFF" fill-rule="evenodd"><path d="M72.517 68.6c.311 5.268-4.888 6.802-6.6 7.163V60.877l.092.025.128.035c.417.137 2.587.899 4.262 2.416 1.281 1.407 1.993 3.173 2.118 5.246zm3.334-.975l.009-.222-.022.003c-.331-5.395-5.52-8.468-8.593-9.442a2.768 2.768 0 0 0-.333-.052l-.094-.009a1.982 1.982 0 0 0-.234-.013c-.064 0-.375.005-.667.08v-.855c0-.86-.711-1.558-1.59-1.558-.875 0-1.586.698-1.586 1.558v25.984c0 .704-.117 2.432-1.2 3.262-.39.3-.748.325-1.25.325l-.115-.002-.27.002c-.397.003-.797.02-1.191.033-.484.017-.97.036-1.454.036H35.745c-1.615 0-3.26-1.9-3.26-3.76V58.402c0-.975-.47-1.558-1.258-1.558-.867 0-1.915.695-1.915 1.558v24.593c0 3.15 2.231 6.67 5.802 6.86.15.033.347.049.611.049.164 0 .334-.005.492-.011.128-.005.248-.01.345-.01h23.83c3.797 0 5.525-3.517 5.525-6.784v-4.135c3.993-.75 10.346-3.751 9.943-10.554a3.244 3.244 0 0 1 0-.284c.003-.058.003-.115.003-.173l.022-.003-.034-.325zM49.109 20.303l1.248 1.876-8.003.413.847-1.741 5.908-.548zm-4.46-2.437l1.203-2.465 1.479 2.227-2.682.238zM32.011 28.825c-1.937 0-3.515-1.556-3.515-3.464 0-.901.533-2.27 1.145-2.933.567-.622 1.02-1.142 1.575-2.035.23.192.467.367.703.523 3.613 2.377 3.613 3.429 3.613 4.445 0 1.908-1.581 3.464-3.521 3.464zm5.221 14.417l-3.445.556c-.481-4.502-1.054-9.453-1.265-11.252l1.423-.175c.634 2.106 1.962 6.517 3.287 10.871zm-4.838 3.985a1.538 1.538 0 0 0 .667-.15l6.511-1.05a1.567 1.567 0 0 0 1.031-.627c.003-.003.003-.008.006-.01l.108 1.423a1.559 1.559 0 0 0-1.412 2.007c.314 1.036.576 2.156.734 2.881l-5.527-.003-.225-2.174c-.095-.851-.823-1.465-1.74-1.39-.844.087-1.503.927-1.414 1.798l.194 1.939h-.108c-.408 0-.8.162-1.1.457a1.602 1.602 0 0 0-.476 1.142c.003.86.698 1.531 1.587 1.531l20.141-.118h.094l.006-.003 12.71.121h.003c.842 0 1.584-.775 1.587-1.66 0-.881-.74-1.656-1.59-1.662l-7.141.192H44.266l-2.218-26.053 9.203-.517.95 18.3-.797 5.362c-.064.413.04.824.292 1.155a1.57 1.57 0 0 0 1.042.614 1.582 1.582 0 0 0 1.798-1.32l4.418-29.706 5.436.288c-2.646 21.115-3.051 24.404-3.074 24.987l-.45 3.818c-.08.517-.161 1.456.23 1.966a.849.849 0 0 0 .582.331c.164.02.316.027.455.027 1.576 0 1.754-1.147 1.848-1.763l.642-6.24 3.123-24.4a1.564 1.564 0 0 0-.355-1.194 1.617 1.617 0 0 0-1.137-.561l-8.572-.452-.078-.003c-.784 0-1.46.575-1.57 1.334l-1.665 11.167-.325-5.923a1.532 1.532 0 0 0-.255-.775l-6.84-10.266a1.58 1.58 0 0 0-1.433-.698c-.57.04-1.075.38-1.323.89l-5.11 10.649a1.59 1.59 0 0 0-.147.786l1.473 19.136c-1.784-5.847-3.616-11.953-3.807-12.589-.003-.024-.012-.046-.017-.068a6.55 6.55 0 0 0 2.109-4.792c0-2.424-.798-4.261-5.01-7.04-.703-.466-1.545-1.307-1.84-2.136-.278-.773-1.272-1.25-2.112-.959-.686.236-1.078.928-1.078 1.9l.003.285c.011.414.022.929-.153 1.222-.436.725-.717 1.106-1.264 1.706-1.12 1.224-1.934 3.335-1.934 5.022 0 2.56 1.517 4.885 3.882 5.97l.002.04c.006.05.973 8.213 1.629 14.454.083.8.761 1.402 1.575 1.402z"/></g></svg>
