<svg class="{{ include.css-class }}" width="185" height="50" viewBox="0 0 185 50" xmlns="http://www.w3.org/2000/svg"><title>{{ site.title }}</title><path d="M26.988 42.195l-5.606 2.944c-2.122 1.308-4.403 1.634-6.84.977-2.434-.658-4.328-2.098-5.678-4.325-1.35-2.226-1.754-4.573-1.215-7.041.54-2.469 1.873-4.359 3.996-5.666l5.526-2.902-.002-6.1c-.038-2.569.874-4.753 2.733-6.55 1.86-1.796 4.142-2.695 6.843-2.696 2.702-.002 5.018.896 6.951 2.689 1.934 1.795 2.92 3.979 2.958 6.548l.003 6.047 5.53 2.89c2.118 1.301 3.447 3.185 3.984 5.647.535 2.462.127 4.805-1.224 7.027-1.353 2.223-3.246 3.664-5.68 4.323-2.436.659-4.713.337-6.833-.965l-5.446-2.847zm5.366-2.817l2.675 1.398c.997.613 2.062.762 3.196.449 1.134-.314 2.017-.994 2.653-2.04.637-1.046.83-2.14.582-3.28-.249-1.14-.872-2.018-1.869-2.63l-2.932-1.533.002 4.849a.85.85 0 0 1-.038.28c-.024.173-.133.318-.327.437l-3.942 2.07zM26.57 21.246c.211-.18.453-.188.726-.02l4.175 2.183-.001-3.334c-.018-1.209-.48-2.228-1.386-3.06-.906-.832-1.994-1.247-3.266-1.247-1.271.001-2.337.417-3.2 1.25-.86.832-1.283 1.853-1.265 3.062l.001 3.38 4.213-2.213.003-.001zm.391 5.427l-4.604 2.418.002 5.063 4.62 2.415 4.497-2.362-.002-5.176-4.513-2.358zm-9.615 10.419c-.11-.113-.167-.273-.17-.481l-.002-4.799-2.938 1.543c-1 .615-1.624 1.496-1.875 2.639-.25 1.144-.057 2.24.578 3.286.636 1.048 1.519 1.728 2.653 2.041 1.135.313 2.201.162 3.2-.453l2.821-1.482-4.06-2.122a.84.84 0 0 1-.207-.172zm9.528-28.575c-2.012-.05-3.625-1.704-3.602-3.695.022-1.99 1.671-3.562 3.683-3.512 2.012.05 3.625 1.705 3.602 3.695-.022 1.99-1.671 3.563-3.683 3.512zM6.917 42.92a3.535 3.535 0 0 1-1.033 4.865 3.473 3.473 0 0 1-4.827-1.042 3.535 3.535 0 0 1 1.033-4.865 3.474 3.474 0 0 1 4.827 1.042zm39.974-.113a3.479 3.479 0 0 1 4.823-1.046c1.616 1.051 2.074 3.224 1.026 4.852a3.478 3.478 0 0 1-4.824 1.046c-1.615-1.05-2.074-3.223-1.025-4.852zm131.284-13.909c1.633 1.6 2.46 3.573 2.46 5.866v13.114c0 .67-.45 1.104-1.15 1.104h-2.75c-.672 0-1.106-.433-1.106-1.104V34.763c0-.942-.32-1.713-.977-2.356-.666-.65-1.466-.966-2.444-.966h-2.222v16.436c0 .67-.434 1.104-1.106 1.104h-2.751c-.699 0-1.15-.433-1.15-1.104V20.535c0-.696.451-1.147 1.15-1.147h2.75c.673 0 1.107.451 1.107 1.147v5.966h2.222c2.332 0 4.339.806 5.967 2.396zm-60.651-.407c1.619-1.458 3.6-2.197 5.889-2.197s4.263.74 5.867 2.199c1.61 1.466 2.427 3.274 2.427 5.373v13.91c0 .663-.48 1.09-1.223 1.09h-2.923c-.713 0-1.174-.427-1.174-1.09v-13.91c0-.759-.279-1.38-.851-1.902-.579-.527-1.273-.783-2.123-.783-.854 0-1.558.258-2.153.787-.584.521-.869 1.142-.869 1.898v14.024c0 .663-.461 1.091-1.174 1.091h-2.924c-.742 0-1.222-.428-1.222-1.09V33.864c0-2.1.825-3.909 2.453-5.375zm35.246-2.197c2.289 0 4.264.756 5.868 2.246 1.61 1.498 2.427 3.344 2.427 5.489v1.274c0 .677-.481 1.115-1.223 1.115h-2.923c-.714 0-1.175-.438-1.175-1.115v-1.274c0-.775-.279-1.41-.85-1.943-.579-.538-1.274-.8-2.124-.8-.854 0-1.557.264-2.152.804-.585.533-.869 1.166-.869 1.939v7.218c0 .773.284 1.406.87 1.938.594.541 1.297.804 2.15.804.847 0 1.54-.267 2.12-.817.575-.548.855-1.178.855-1.925v-1.248c0-.704.46-1.159 1.175-1.159h2.923c.742 0 1.223.455 1.223 1.16v1.247c0 2.114-.817 3.952-2.425 5.464-1.604 1.507-3.58 2.27-5.87 2.27s-4.27-.755-5.89-2.245c-1.627-1.496-2.452-3.342-2.452-5.489v-7.218c0-2.146.825-3.993 2.453-5.492 1.62-1.488 3.6-2.243 5.889-2.243zm-13.346 0c.662 0 1.09.437 1.09 1.114v20.46c0 .677-.428 1.114-1.09 1.114h-2.713c-.662 0-1.09-.437-1.09-1.114v-20.46c0-.677.428-1.114 1.09-1.114h2.713zm-28.511 0c.742 0 1.222.437 1.222 1.114v13.848c0 2.112-.815 3.947-2.424 5.457-1.604 1.506-3.579 2.269-5.87 2.269-2.29 0-4.271-.755-5.89-2.243-1.626-1.494-2.452-3.34-2.452-5.483V27.407c0-.677.48-1.114 1.223-1.114h2.922c.714 0 1.176.437 1.176 1.114v13.848c0 .771.284 1.405.869 1.936.594.54 1.299.804 2.152.804.847 0 1.54-.268 2.118-.818.576-.547.856-1.175.856-1.922V27.407c0-.677.46-1.114 1.174-1.114h2.924zm-27.162 0c2.162 0 4.026.75 5.542 2.227 1.52 1.486 2.292 3.317 2.292 5.442V47.87c0 .674-.456 1.11-1.16 1.11h-2.758c-.677 0-1.115-.436-1.115-1.11V33.962c0-.765-.262-1.393-.801-1.92-.545-.532-1.199-.79-2-.79-.803 0-1.466.26-2.026.794a2.524 2.524 0 0 0-.819 1.916v13.9c0 .625-.37 1.046-.968 1.104-.07.01-.145.015-.223.015h-2.759c-.677 0-1.115-.437-1.115-1.111V33.962c0-.765-.262-1.393-.8-1.92-.545-.532-1.2-.79-2-.79-.804 0-1.467.26-2.027.794a2.524 2.524 0 0 0-.818 1.916v13.9c0 .675-.438 1.11-1.115 1.11h-2.759c-.704 0-1.159-.435-1.159-1.11v-13.9c0-2.127.78-3.96 2.317-5.444 1.529-1.476 3.4-2.225 5.561-2.225 2.069 0 3.866.686 5.345 2.04 1.492-1.354 3.296-2.04 5.365-2.04z" fill="#FEFEFE" fill-rule="evenodd"/></svg>
