<svg class="{{ include.css-class }}" width="101" height="101" viewBox="0 0 101 101" xmlns="http://www.w3.org/2000/svg"><title>Campañas</title><g fill="#FFF" fill-rule="evenodd"><path d="M50.42 11.458c21.394 0 38.8 17.191 38.8 38.322 0 21.13-17.406 38.321-38.8 38.321S11.62 70.91 11.62 49.78c0-2.947.34-5.882 1.008-8.723a1.77 1.77 0 0 1 2.128-1.305 1.748 1.748 0 0 1 1.322 2.099 34.664 34.664 0 0 0-.916 7.929c0 19.202 15.817 34.823 35.258 34.823 19.442 0 35.258-15.621 35.258-34.823 0-19.203-15.816-34.824-35.258-34.824-7.345 0-14.382 2.207-20.354 6.384a1.783 1.783 0 0 1-2.468-.418 1.733 1.733 0 0 1 .424-2.437c6.573-4.599 14.319-7.027 22.398-7.027zm0 42.754c2.623 0 4.76-2.11 4.76-4.701 0-2.591-2.137-4.701-4.76-4.701-.555 0-1.1.094-1.615.279a1.777 1.777 0 0 1-2.266-1.05 1.74 1.74 0 0 1 1.062-2.238 8.32 8.32 0 0 1 2.82-.486c4.575 0 8.3 3.677 8.3 8.196s-3.725 8.199-8.3 8.199c-3.609 0-6.785-2.278-7.896-5.668a1.74 1.74 0 0 1 1.137-2.201c.93-.299 1.93.205 2.232 1.123.636 1.943 2.456 3.248 4.526 3.248zM33.391 43.359a1.746 1.746 0 0 1 1.264 2.136 16.018 16.018 0 0 0-.536 4.11c0 8.904 7.334 16.145 16.35 16.145 9.012 0 16.346-7.241 16.346-16.145 0-8.902-7.334-16.145-16.346-16.145-3.542 0-6.914 1.1-9.747 3.18a1.784 1.784 0 0 1-2.476-.36 1.734 1.734 0 0 1 .365-2.445c3.447-2.534 7.547-3.873 11.858-3.873 10.964 0 19.885 8.813 19.885 19.643 0 10.832-8.92 19.643-19.885 19.643-10.968 0-19.891-8.81-19.891-19.643 0-1.692.222-3.373.65-5a1.773 1.773 0 0 1 2.163-1.246zM22.02 45a1.676 1.676 0 0 1 1.936-1.364 1.663 1.663 0 0 1 1.382 1.913 25.244 25.244 0 0 0-.353 4.217c0 13.988 11.52 25.37 25.686 25.37 14.163 0 25.687-11.382 25.687-25.37 0-13.989-11.524-25.37-25.687-25.37-5.385 0-10.541 1.629-14.91 4.709a1.695 1.695 0 0 1-2.346-.387 1.651 1.651 0 0 1 .39-2.318c4.943-3.485 10.775-5.327 16.866-5.327 16.018 0 29.048 12.873 29.048 28.693 0 15.82-13.03 28.693-29.048 28.693-16.02 0-29.05-12.873-29.05-28.693 0-1.597.134-3.201.399-4.766z"/><path d="M20.75 32.515c1.65 1.07 3.695 2.38 6.223 3.996l-4.797 1.866-5.48-3.922 4.054-1.94zm7.23-4.214l.277 4.857c-1.837-1.18-3.553-2.286-5.059-3.265l.19-4.718 4.593 3.126zm-7.097 13.471a1.785 1.785 0 0 0 1.687.21l8.063-3.136c.518.33.999.64 1.552.99A4274.58 4274.58 0 0 0 49.78 50.992a1.786 1.786 0 0 0 2.445-.532 1.739 1.739 0 0 0-.541-2.417A3675 3675 0 0 1 31.94 35.516l-.475-8.268a1.735 1.735 0 0 0-.763-1.342l-7.953-5.412a1.798 1.798 0 0 0-1.797-.122 1.75 1.75 0 0 0-.976 1.493l-.23 5.77c-1.48-.981-2.491-1.672-2.851-1.96a1.782 1.782 0 0 0-1.336-.6c-.98 0-1.77.783-1.77 1.75 0 .736.02 1.06 3.544 3.44l-4.843 2.316a1.736 1.736 0 0 0-.268 2.989l8.66 6.202z"/></g></svg>
