<svg class="{{ include.css-class }}" width="85" height="85" viewBox="0 0 85 85" xmlns="http://www.w3.org/2000/svg"><title>Contacto</title><g fill="none" fill-rule="evenodd"><path fill="#9CE8DA" d="M0 .394h85v85H0z"/><path d="M62 61.72v1.93H24v-1.93c0-9.603 7.449-17.585 17.042-18.553v-3.334h-4.196v-3.858h12.308v3.858h-4.195v3.334C54.552 44.135 62 52.117 62 61.721zm-4.044-1.928c-.969-7.275-7.335-12.866-14.955-12.866-7.622 0-13.99 5.59-14.958 12.866h29.913zm-3.799-34.64l-.71-.71a14.25 14.25 0 0 0-10.143-4.205c-3.83 0-7.427 1.491-10.142 4.204l-.71.711-2.858-2.856.695-.695a18.296 18.296 0 0 1 13.015-5.393A18.3 18.3 0 0 1 56.32 21.6l.695.695-2.858 2.856zm-5.982 4.934a6.839 6.839 0 0 0-4.87-2.02c-1.84 0-3.566.715-4.871 2.02l-.874.874-2.497-2.496.855-.854a10.388 10.388 0 0 1 7.386-3.06 10.39 10.39 0 0 1 7.387 3.06l.855.854-2.497 2.496-.874-.874z" fill="#000" fill-rule="nonzero"/></g></svg>
