<svg class="{{ include.css-class }}" width="64" height="79" viewBox="0 0 64 79" xmlns="http://www.w3.org/2000/svg"><title>Contacto</title><g fill="#FFF" fill-rule="nonzero"><path d="M52.893 12.25c-5.994-5.988-12.73-8.982-20.21-8.982-7.479 0-14.23 2.994-20.251 8.982l-1.753-1.45C16.861 4.248 24.195.972 32.683.972c8.488 0 15.824 3.276 22.006 9.828l-1.796 1.45zm-20.21 3.301c-5.225 0-9.01 2.143-11.357 6.43l-1.868-1.223c2.9-5.092 7.309-7.639 13.226-7.639 5.917 0 10.326 2.547 13.227 7.64L44.15 21.98c-2.419-4.286-6.24-6.429-11.466-6.429zM61.69 76.558v-2.114c0-14.204-13.615-27.379-28.529-28.945-16.82 1.751-30.46 14.422-30.46 28.945v2.114H61.69zM33.06 45.488l-.899-.091v-8.873H19.999v-2.375h25.714v2.375H34.162v8.873l-.9.091-.1.01a28.837 28.837 0 0 0-.101-.01zm1.101-.995l-.899-.995c.3.031.6.066.899.105v.89zM63.69 74.444v4.114H.7v-4.114c0-15.398 14.052-28.683 31.461-30.844v-7.451H20.999v-1.625h23.714v1.625H34.162v7.454c15.563 2.04 29.528 15.805 29.528 30.841zm-18.977-38.92h-1v-.375h1v.375zm-23.714-.375h1v.375h-1v-.375zm12.062 8.35l-.899.994V43.6c.299-.037.598-.071.9-.102z"/></g></svg>
