<svg class="{{ include.css-class }}" width="101" height="101" viewBox="0 0 101 101" xmlns="http://www.w3.org/2000/svg"><title>Marketing digital</title><path d="M81.625 73.881c-2.735 4.49-7.39 7.275-12.147 7.275-1.874 0-3.744-.423-5.562-1.253L39.31 68.625a2.417 2.417 0 0 1-1.391-2.655c1.002-.408 2.568-.753 4.178-.753.95 0 1.778.13 2.27.353l4.661 2.137a2.17 2.17 0 0 0 2.492-.495 2.018 2.018 0 0 0 .222-2.461L37.695 42.693a2.335 2.335 0 0 1-.301-1.833c.15-.634.547-1.171 1.114-1.512 1.137-.678 2.741-.308 3.44.788l6.495 10.2a2.141 2.141 0 0 0 2.172.947 2.105 2.105 0 0 0 1.717-1.604 2.396 2.396 0 0 1 1.12-1.555c1.035-.62 2.462-.38 3.229.503a2.167 2.167 0 0 0 2.284.64 2.085 2.085 0 0 0 1.465-1.818 2.427 2.427 0 0 1 1.174-1.9c1.027-.615 2.465-.386 3.232.502a2.164 2.164 0 0 0 2.281.636 2.07 2.07 0 0 0 1.465-1.814 2.437 2.437 0 0 1 1.175-1.9c1.147-.69 2.799-.349 3.385.692l8.993 15.955c2.459 4.37 2.273 9.7-.51 14.261m4.237-16.246c3.193 5.663 2.976 12.526-.578 18.35-3.497 5.738-9.555 9.304-15.806 9.304-2.506 0-4.987-.556-7.375-1.65L37.498 72.364c-3.371-1.543-4.817-5.463-3.229-8.736.175-.36.455-.668.805-.876 2.273-1.365 6.627-2.033 9.478-1.44L34.08 44.87a6.362 6.362 0 0 1-.827-4.958 6.51 6.51 0 0 1 3.015-4.076c3.081-1.847 7.402-.847 9.295 2.126l4.685 7.358c.299-.264.624-.5.97-.71 1.79-1.079 4.104-1.249 6.016-.525a6.635 6.635 0 0 1 2.13-2.05c1.794-1.082 4.103-1.252 6.022-.526a6.579 6.579 0 0 1 2.136-2.052 6.998 6.998 0 0 1 3.61-.992c2.423 0 4.62 1.232 5.74 3.214l8.99 15.956zM38.65 29.511c-6.154 0-11.164 5.012-11.164 11.168 0 4.73 2.992 8.963 7.445 10.538a2.102 2.102 0 0 1 1.282 2.68 2.104 2.104 0 0 1-2.684 1.282c-6.127-2.167-10.244-7.994-10.244-14.5 0-8.476 6.893-15.371 15.365-15.371 7.523 0 14.053 5.602 15.19 13.03a2.1 2.1 0 0 1-1.759 2.396c-1.139.162-2.218-.612-2.394-1.757-.828-5.399-5.57-9.466-11.037-9.466zm-8.597 30.22a2.068 2.068 0 0 1 1.031 2.76 2.12 2.12 0 0 1-1.92 1.205c-.297 0-.6-.06-.885-.19C19.302 59.42 13.5 50.49 13.5 40.76c0-13.816 11.418-25.05 25.457-25.05 11.557 0 21.68 7.668 24.621 18.651.3 1.108-.375 2.246-1.502 2.54-1.121.287-2.286-.369-2.585-1.482-2.452-9.157-10.896-15.554-20.534-15.554-11.707 0-21.231 9.374-21.231 20.895 0 8.115 4.838 15.564 12.327 18.97z" fill="#FFF" fill-rule="evenodd"/></svg>
