<svg class="{{ include.css-class }}" width="101" height="101" viewBox="0 0 101 101" xmlns="http://www.w3.org/2000/svg"><title>SEO/SEM</title><g fill="#FFF" fill-rule="evenodd"><path d="M15.75 67.507H84.31V20.681H15.75v46.826zm27.44 12.491h13.68v-8.81H43.19v8.81zM86.186 17H13.875C12.838 17 12 17.823 12 18.84v50.508c0 1.017.838 1.84 1.875 1.84h25.563v8.81h-6.703c-1.037 0-1.875.823-1.875 1.84 0 1.018.838 1.84 1.875 1.84h34.588c1.037 0 1.875-.822 1.875-1.84 0-1.017-.838-1.84-1.875-1.84H60.62v-8.81h25.566c1.036 0 1.875-.823 1.875-1.84V18.84c0-1.017-.839-1.84-1.875-1.84z"/><path d="M27.234 48.135c1.592 0 2.885 1.27 2.885 2.832 0 1.562-1.293 2.832-2.885 2.832-1.595 0-2.89-1.27-2.89-2.832 0-1.562 1.295-2.832 2.89-2.832M42.84 32.588c1.593 0 2.888 1.27 2.888 2.835 0 1.56-1.295 2.83-2.888 2.83-1.59 0-2.887-1.27-2.887-2.83 0-1.564 1.298-2.835 2.887-2.835m18.497 16.738c0 1.56-1.297 2.83-2.887 2.83-1.593 0-2.888-1.27-2.888-2.83 0-1.562 1.295-2.832 2.888-2.832 1.59 0 2.887 1.27 2.887 2.832m12.722-9.903c1.593 0 2.888 1.27 2.888 2.832 0 1.562-1.295 2.832-2.888 2.832s-2.888-1.27-2.888-2.832c0-1.562 1.295-2.832 2.888-2.832m-46.825 18.06c3.66 0 6.64-2.924 6.64-6.516 0-1.141-.326-2.198-.854-3.134l6.842-6.622c.898.447 1.903.726 2.978.726a6.663 6.663 0 0 0 3.443-.973l6.196 5.564c-.418.85-.67 1.791-.67 2.798 0 3.59 2.978 6.514 6.64 6.514 3.663 0 6.642-2.924 6.642-6.514 0-.286-.048-.56-.086-.836l4.091-1.948c1.218 1.354 2.979 2.23 4.963 2.23 3.662 0 6.641-2.925 6.641-6.517 0-3.592-2.979-6.514-6.641-6.514s-6.644 2.922-6.644 6.514c0 .326.051.637.1.95l-4.033 1.92c-1.22-1.402-3.01-2.312-5.032-2.312-1.274 0-2.45.368-3.462.98l-6.185-5.556a6.307 6.307 0 0 0 .681-2.814c0-3.594-2.981-6.516-6.644-6.516-3.662 0-6.64 2.922-6.64 6.516 0 1.194.353 2.301.927 3.264L30.35 45.25c-.935-.491-1.984-.796-3.115-.796-3.662 0-6.646 2.921-6.646 6.513s2.984 6.517 6.646 6.517"/></g></svg>
