<svg class="{{ include.css-class }}" width="85" height="85" viewBox="0 0 85 85" xmlns="http://www.w3.org/2000/svg"><title>Facebook</title><g fill="none" fill-rule="evenodd"><path fill="#9CE8DA" d="M0 0h85v85H0z"/><path d="M26.944 60.097c.497-8.364 7.509-15.018 16.057-15.018 8.546 0 15.557 6.654 16.054 15.018H26.944zM61 61.048c0-9.535-7.56-17.349-17.041-17.846v-3.3h4.195V38H37.846v1.903h4.196v3.3C32.561 43.697 25 51.512 25 61.047V62h36v-.952zM37 31.285l1.305 1.685c2.672-3.448 7.022-3.448 9.695 0l1.304-1.685c-3.392-4.38-8.912-4.38-12.304 0M43.304 22.077c4.096 0 7.952 1.616 10.853 4.55l1.452-1.467c-3.29-3.327-7.66-5.16-12.305-5.16-4.646 0-9.015 1.833-12.304 5.16l1.451 1.467c2.902-2.934 6.756-4.55 10.853-4.55" fill="#000"/></g></svg>
