<svg class="{{ include.css-class }}" width="101" height="101" viewBox="0 0 101 101" xmlns="http://www.w3.org/2000/svg"><title>Redes sociales</title><g fill="#FFF" fill-rule="evenodd"><path d="M52.075 51.062H33.181c-1.822 0-3.3-1.405-3.3-3.129V30.022h-3.706v17.911c0 3.66 3.144 6.64 7.006 6.64h3.3v6.387h3.705v-6.386h11.89v-3.512z"/><path d="M88.008 70.729c0 1.726-1.48 3.125-3.297 3.125h-8.727l.22 9.656-12.648-9.656h-20.07c-1.82 0-3.3-1.4-3.3-3.125V65.97h10.172c3.862 0 7.005-2.98 7.005-6.643v-4.752h2.462l8.627 8.123a3.656 3.656 0 0 0 2.514.99c.464 0 .931-.09 1.376-.266C73.68 62.9 74.54 61.67 74.54 60.3v-5.724h1.582c3.864 0 7.005-2.983 7.005-6.644V41.42h-3.708v6.513c0 1.727-1.476 3.129-3.297 3.129h-5.287l.228 9.148-9.706-9.148h-3.993V39.92h27.348c1.818 0 3.297 1.402 3.297 3.128v27.68zm-59.574-8.273l-8.86 8.78v-8.78h-3.569c-1.82 0-3.3-1.402-3.3-3.128V31.65c0-1.726 1.48-3.129 3.3-3.129h34.353c1.818 0 3.297 1.403 3.297 3.129v27.678c0 1.726-1.479 3.128-3.297 3.128H28.434zm1.447-42.204c0-1.724 1.48-3.129 3.3-3.129h42.94c1.821 0 3.297 1.405 3.297 3.129v16.155H57.363V31.65c0-3.66-3.143-6.64-7.005-6.64H29.881v-4.758zm54.83 16.155h-1.585V20.252c0-3.66-3.14-6.64-7.005-6.64h-42.94c-3.864 0-7.004 2.98-7.004 6.64v4.757H16.005C12.141 25.01 9 27.99 9 31.65v27.679c0 3.62 3.07 6.573 6.871 6.64v5.587c0 1.867 1.605 3.388 3.583 3.388a3.63 3.63 0 0 0 2.567-1.048l7.997-7.924h6.464v4.758c0 3.66 3.14 6.64 7.005 6.64h18.76l11.637 8.878c.65.497 1.436.75 2.228.75.528 0 1.052-.11 1.55-.337 1.252-.567 2.03-1.737 2.03-3.05v-6.24h5.019c3.861 0 7.005-2.98 7.005-6.641V43.048c0-3.663-3.144-6.64-7.005-6.64z"/><path d="M40.186 43.048c0-1.727 1.482-3.129 3.3-3.129h8.59v-3.512h-8.59c-3.861 0-7.005 2.98-7.005 6.64v6.514h3.705v-6.513z"/></g></svg>
