<svg class="{{ include.css-class }}" width="101" height="101" viewBox="0 0 101 101" xmlns="http://www.w3.org/2000/svg"><title>Web</title><path d="M91.842 71.44h-9.457V53.614h9.457V71.44zm-13.439 0H62.238V38.805h22.899V49.77h-4.741c-1.102 0-1.993.86-1.993 1.921V71.44zM58.256 61.01v2.955H9.982V29.842h57.394v5.119h-7.128c-1.102 0-1.992.86-1.992 1.924V61.01zM33.27 71.44h10.815v-3.63H33.27v3.63zm55.845-21.67V36.885c0-1.064-.89-1.924-1.989-1.924H71.358v-7.04c0-1.061-.89-1.921-1.992-1.921H7.992C6.891 26 6 26.86 6 27.921v37.968c0 1.061.89 1.921 1.992 1.921h21.299v3.63h-5.292c-1.099 0-1.99.86-1.99 1.92 0 1.064.891 1.924 1.99 1.924h29.36c1.099 0 1.99-.86 1.99-1.924 0-1.06-.891-1.92-1.99-1.92h-5.292v-3.63h10.189v5.55c0 1.064.89 1.924 1.992 1.924h33.584c1.101 0 1.992-.86 1.992-1.924V51.691c0-1.06-.89-1.92-1.992-1.92h-4.717z" fill="#FFF" fill-rule="evenodd"/></svg>
