<svg width="67" height="63" viewBox="0 0 67 63" xmlns="http://www.w3.org/2000/svg">
  <g id="Page-1" stroke="none" stroke-width="1" fill="none" fill-rule="evenodd">
    <g id="Munich_Home-DESK_01" transform="translate(-146.000000, -962.000000)" fill="#1D1D1B">
      <g id="Servicios" transform="translate(71.000000, 959.000000)">
        <g id="Page-1" transform="translate(75.000000, 3.000000)">
          <path d="M34.6444834,32.1211649 L19.4478255,32.1211649 C17.9831703,32.1211649 16.7935676,30.9355932 16.7935676,29.480988 L16.7935676,14.364949 L13.8138308,14.364949 L13.8138308,29.480988 C13.8138308,32.5703142 16.3420229,35.0850941 19.4478255,35.0850941 L22.1020834,35.0850941 L22.1020834,40.4748854 L25.0818203,40.4748854 L25.0818203,35.0850941 L34.6444834,35.0850941 L34.6444834,32.1211649 Z" id="Fill-1"></path>
          <path d="M63.5442634,48.7184846 C63.5442634,50.1753698 62.3546608,51.3563816 60.8922976,51.3563816 L53.8738713,51.3563816 L54.0503634,59.504907 L43.8780003,51.3563816 L27.736995,51.3563816 C26.2723397,51.3563816 25.0827371,50.1753698 25.0827371,48.7184846 L25.0827371,44.7035005 L33.2632608,44.7035005 C36.3690634,44.7035005 38.8972555,42.1887205 38.8972555,39.0971143 L38.8972555,35.0866901 L40.8776345,35.0866901 L47.8158371,41.9424864 C48.3659424,42.4873934 49.0925397,42.7769465 49.8374739,42.7769465 C50.2110871,42.7769465 50.5869924,42.7017083 50.9445608,42.5535118 C52.0195582,42.1112024 52.7117739,41.0738271 52.7117739,39.9178947 L52.7117739,35.0866901 L53.9838924,35.0866901 C57.0919871,35.0866901 59.6178871,32.5696302 59.6178871,29.480304 L59.6178871,23.9833553 L56.6358582,23.9833553 L56.6358582,29.480304 C56.6358582,30.9371892 55.4485476,32.1204809 53.9838924,32.1204809 L49.7320371,32.1204809 L49.9154055,39.8403766 L42.108495,32.1204809 L38.8972555,32.1204809 L38.8972555,22.7179855 L60.8922976,22.7179855 C62.3546608,22.7179855 63.5442634,23.9012772 63.5442634,25.3581624 L63.5442634,48.7184846 Z M15.630095,41.7372913 L8.50393974,49.1471143 L8.50393974,41.7372913 L5.63422395,41.7372913 C4.16956868,41.7372913 2.97996605,40.5539995 2.97996605,39.0971143 L2.97996605,15.7390721 C2.97996605,14.2821869 4.16956868,13.0988952 5.63422395,13.0988952 L33.2632608,13.0988952 C34.7256239,13.0988952 35.9152266,14.2821869 35.9152266,15.7390721 L35.9152266,39.0971143 C35.9152266,40.5539995 34.7256239,41.7372913 33.2632608,41.7372913 L15.630095,41.7372913 Z M16.7944845,6.11998185 C16.7944845,4.66537659 17.9840871,3.4798049 19.4487424,3.4798049 L53.9838924,3.4798049 C55.4485476,3.4798049 56.6358582,4.66537659 56.6358582,6.11998185 L56.6358582,19.7540563 L38.8972555,19.7540563 L38.8972555,15.7390721 C38.8972555,12.6497459 36.3690634,10.134966 33.2632608,10.134966 L16.7944845,10.134966 L16.7944845,6.11998185 Z M60.8922976,19.7540563 L59.6178871,19.7540563 L59.6178871,6.11998185 C59.6178871,3.03065563 57.0919871,0.515875681 53.9838924,0.515875681 L19.4487424,0.515875681 C16.3406476,0.515875681 13.8147476,3.03065563 13.8147476,6.11998185 L13.8147476,10.134966 L5.63422395,10.134966 C2.52612921,10.134966 0.000229210526,12.6497459 0.000229210526,15.7390721 L0.000229210526,39.0971143 C0.000229210526,42.1522414 2.46882658,44.6442219 5.526495,44.7012205 L5.526495,49.4161479 C5.526495,50.9915903 6.81695026,52.2751996 8.40767132,52.2751996 C9.18927921,52.2751996 9.92275289,51.9605672 10.4728582,51.3905808 L16.9045055,44.7035005 L22.1030003,44.7035005 L22.1030003,48.7184846 C22.1030003,51.8078108 24.6289003,54.3225907 27.736995,54.3225907 L42.8259239,54.3225907 L52.1845897,61.8144918 C52.7071897,62.2340018 53.3398108,62.4483167 53.9770161,62.4483167 C54.4010555,62.4483167 54.8228029,62.3548389 55.2239213,62.1633235 C56.2301555,61.6845349 56.8559003,60.6973185 56.8559003,59.589265 L56.8559003,54.3225907 L60.8922976,54.3225907 C63.9981003,54.3225907 66.5262924,51.8078108 66.5262924,48.7184846 L66.5262924,25.3581624 C66.5262924,22.2665563 63.9981003,19.7540563 60.8922976,19.7540563 Z" id="Fill-3"></path>
          <path d="M25.0822787,25.3579344 C25.0822787,23.9010492 26.2741734,22.7177575 27.7365366,22.7177575 L34.6449418,22.7177575 L34.6449418,19.7538283 L27.7365366,19.7538283 C24.6307339,19.7538283 22.1025418,22.2686082 22.1025418,25.3579344 L22.1025418,30.8548832 L25.0822787,30.8548832 L25.0822787,25.3579344 Z" id="Fill-6"></path>
        </g>
      </g>
    </g>
  </g>
</svg>
