<svg class="{{ include.css-class }}" width="23" height="28" viewBox="0 0 23 28" xmlns="http://www.w3.org/2000/svg"><title>Ubicación</title><path d="M19.55 15.295a9.287 9.287 0 0 0 .95-4.112 9.244 9.244 0 0 0-2.644-6.5A8.878 8.878 0 0 0 11.5 2c-4.967 0-9 4.107-9 9.183 0 1.45.328 2.847.95 4.112.985 2.003 5.084 7.106 8.05 10.26 2.969-3.159 7.066-8.258 8.05-10.26zM11.5 0c2.96 0 5.736 1.196 7.783 3.281a11.244 11.244 0 0 1 3.217 7.902c0 1.757-.399 3.456-1.155 4.994-1.185 2.411-6.01 8.345-9.131 11.524a1 1 0 0 1-1.427 0c-3.117-3.17-7.946-9.11-9.132-11.524A11.287 11.287 0 0 1 .5 11.183C.5 5.011 5.42 0 11.5 0z" fill="#E5FF00" fill-rule="nonzero"/></svg>
